PathFileType	4	(X/Y/Z)	./resultDataOpenSim/trcMotMarkerGrf/sub09/qtm-05-04.trc
DataRate	CameraRate	NumFrames	NumMarkers	Units	OrigDataRate	OrigDataStartFrame	OrigNumFrames
250.000000	250.000000	6	24	m	250.000000	1	636
Frame#	Time	L.Toe.Tip			R.Toe.Tip			L.Ankle.Lat			R.Ankle.Lat			L.Ankle.Med			R.Ankle.Med			L.Heel			R.Heel			L.Knee.Lat			R.Knee.Lat			L.Knee.Med			R.Knee.Med			L.Thigh.Upper			R.Thigh.Upper			L.ASIS			R.ASIS			V.Sacral			L.Acromium			R.Acromium			C7			L.Elbow			R.Elbow			L.Wrist.Lat			R.Wrist.Lat
		X1	Y1	Z1	X2	Y2	Z2	X3	Y3	Z3	X4	Y4	Z4	X5	Y5	Z5	X6	Y6	Z6	X7	Y7	Z7	X8	Y8	Z8	X9	Y9	Z9	X10	Y10	Z10	X11	Y11	Z11	X12	Y12	Z12	X13	Y13	Z13	X14	Y14	Z14	X15	Y15	Z15	X16	Y16	Z16	X17	Y17	Z17	X18	Y18	Z18	X19	Y19	Z19	X20	Y20	Z20	X21	Y21	Z21	X22	Y22	Z22	X23	Y23	Z23	X24	Y24	Z24

1	0	-1.5181476	0.037106391	-0.021429231	-0.9890998	0.083042717	0.08629664	-1.669309	0.078147897	-0.050383336	-1.1387552	0.070738651	0.11098682	-1.6402667	0.093714627	0.041717067	-1.1278833	0.11112035	0.021368354	NaN	NaN	NaN	-1.191094	0.035121651	0.053373314	-1.5278129	0.47048204	-0.11603559	-1.1953291	0.52506681	0.16288881	-1.5227548	0.47137642	0.0099023472	-1.1949029	0.50794677	0.035561308	-1.4301011	0.88146082	-0.16476279	-1.4005482	0.87551191	0.20510279	-1.3263755	0.95536593	-0.1097659	-1.3195817	0.95961733	0.13029591	-1.4860974	1.0202202	0.021504086	-1.2980628	1.4146667	-0.14291235	-1.3442386	1.417499	0.18223657	-1.3852169	1.4669464	0.006516419	-1.3804942	1.0468212	-0.22779456	NaN	NaN	NaN	-1.1174424	0.96760327	-0.20708697	-1.4639109	0.84217417	0.28040113
2	0.004	-1.5181034	0.037068403	-0.021488431	-0.97210575	0.086762888	0.086753924	-1.6690961	0.078734106	-0.050272951	-1.1217362	0.070872225	0.11096281	-1.6398785	0.094207444	0.041766264	-1.1112237	0.11167049	0.021461417	NaN	NaN	NaN	-1.1728373	0.034018589	0.053379148	-1.5254028	0.47042058	-0.11619685	-1.1896653	0.52356821	0.16321347	-1.5204141	0.47120915	0.0098816074	-1.1888381	0.50652595	0.035635687	-1.4249104	0.88043672	-0.16450038	-1.3951999	0.8740668	0.20518381	-1.3207114	0.95419856	-0.10978301	-1.313586	0.95826107	0.13040428	-1.4801534	1.0188041	0.021791215	-1.2924073	1.4134885	-0.142639	-1.3388464	1.4161378	0.18255106	-1.3792862	1.4663004	0.010228958	-1.3733983	1.0452579	-0.22762025	NaN	NaN	NaN	-1.1096281	0.96869973	-0.20641839	-1.4595443	0.84065703	0.28060464
3	0.008	-1.518056	0.037029448	-0.021552627	-0.95520796	0.090660091	0.087102542	-1.6688648	0.079362734	-0.050194079	-1.1049123	0.071117614	0.11095399	-1.6394817	0.094717736	0.041794115	-1.0950325	0.11224006	0.021526671	NaN	NaN	NaN	-1.1548513	0.033079811	0.05327315	-1.5228992	0.4703563	-0.11630884	-1.1839439	0.5220781	0.16343958	-1.5179164	0.47106821	0.009832111	-1.1827888	0.50507236	0.035661774	-1.4196806	0.87942667	-0.16416953	-1.3896486	0.87261469	0.20528936	-1.3150288	0.95299615	-0.10979588	-1.3076249	0.95691669	0.13050365	-1.4743183	1.0173321	0.021856574	-1.2867239	1.412319	-0.1423594	-1.3333746	1.4147739	0.18285756	-1.3735186	1.465469	0.012972225	-1.3662807	1.0436472	-0.22736602	NaN	NaN	NaN	-1.1018232	0.9697409	-0.20575132	-1.4549717	0.83913141	0.2808001
4	0.012	-1.5180054	0.036989686	-0.021624964	-0.9385782	0.094829389	0.087350748	-1.6686042	0.080041711	-0.050169974	-1.0883672	0.071542284	0.11097924	-1.6390754	0.095251859	0.041793131	-1.0793932	0.11289156	0.021570668	NaN	NaN	NaN	-1.1373836	0.032450875	0.05287731	-1.5202223	0.47027684	-0.11637123	-1.1781216	0.52058528	0.16355841	-1.5152217	0.47096234	0.009750864	-1.1767547	0.5035701	0.035626323	-1.4143937	0.87842248	-0.16376327	-1.3838665	0.87114061	0.20541796	-1.3093102	0.95175767	-0.10980086	-1.3016413	0.95557394	0.13059281	-1.468621	1.0157877	0.021588483	-1.2810017	1.4111582	-0.1420607	-1.3277953	1.4133979	0.18315652	-1.3679116	1.4644062	0.014488908	-1.359135	1.0419912	-0.22701441	NaN	NaN	NaN	-1.0940425	0.97069678	-0.20509068	-1.4499966	0.83761278	0.28099339
5	0.016	-1.517952	0.03695186	-0.02170341	-0.9224295	0.099248849	0.087617218	-1.6683076	0.080749676	-0.050206667	-1.0721427	0.072157517	0.11102986	-1.6386583	0.095802187	0.041760532	-1.064144	0.11370117	0.021623974	NaN	NaN	NaN	-1.1206274	0.032203133	0.052045252	-1.5173714	0.47016038	-0.11641625	-1.1722434	0.51906402	0.16363346	-1.5124117	0.47087049	0.009663451	-1.1707398	0.50202535	0.035550954	-1.4090581	0.87741088	-0.16334548	-1.3779165	0.8696347	0.20556433	-1.303566	0.95050615	-0.10979948	-1.2955805	0.95421875	0.13067785	-1.4629838	1.0142079	0.021119313	-1.2752571	1.4099999	-0.14173744	-1.3221305	1.4120041	0.18345494	-1.3623384	1.4632129	0.015212296	-1.3519931	1.0403405	-0.2266251	NaN	NaN	NaN	-1.0863121	0.97155529	-0.20443712	-1.4445987	0.83611109	0.28118802
6	0.02	-1.5178956	0.036917642	-0.02178274	-0.90689438	0.10381586	0.08798307	-1.6679688	0.081476292	-0.050296199	-1.0562632	0.072946503	0.1110751	-1.6382042	0.096364535	0.041683976	-1.0491798	0.11469592	0.021692284	NaN	NaN	NaN	-1.1044278	0.032211286	0.051069627	-1.5144311	0.46998368	-0.11648175	-1.166368	0.51749881	0.16372138	-1.5095673	0.4707529	0.0096053788	-1.1647492	0.50045511	0.035465562	-1.4036779	0.8763849	-0.16298922	-1.3718284	0.86809416	0.20572722	-1.2978143	0.94925372	-0.10979943	-1.28945	0.95285218	0.13076357	-1.4572772	1.0126404	0.020756036	-1.2695022	1.4088349	-0.14139974	-1.3164127	1.4105955	0.18376401	-1.3567041	1.4620085	0.015658179	-1.344885	1.0387358	-0.22626337	NaN	NaN	NaN	-1.0786423	0.97231308	-0.203787	-1.4389051	0.83461415	0.2813733
